<svg xmlns="http://www.w3.org/2000/svg" viewBox="0 0 15 15" fill="black"><path d="M12,4a2,2,0,1,0-4,0,2,2,0,0,0,4,0Zm-1.2,0a.8.8,0,1,1-1.6,0,.8.8,0,0,1,1.6,0ZM4.5,13A1.5,1.5,0,1,0,3,11.5,1.5,1.5,0,0,0,4.5,13Zm0-2A.5.5,0,1,1,4,11.5.5.5,0,0,1,4.5,11Zm6,1A1.5,1.5,0,1,0,9,10.5,1.5,1.5,0,0,0,10.5,12Zm0-2A.5.5,0,1,1,10,10.5.5.5,0,0,1,10.5,10ZM12,5.5a.5.5,0,0,0-.5-.5H10L8.78,7.1,6.5,4.75a.5.5,0,0,0-.35-.15H4a.5.5,0,0,0-.49.58l1.32,4.88L3.29,11.08A.5.5,0,0,0,3.5,11h2a.5.5,0,0,0,.46-.3l.7-1.76H9.5a.5.5,0,0,0,.46-.3L10.6,7.5,12.2,9H13a.5.5,0,0,0,.49-.58Z"/></svg>