<svg xmlns="http://www.w3.org/2000/svg" viewBox="0 0 15 15" fill="black"><path d="M3.5,13A1.5,1.5,0,1,0,2,11.5,1.5,1.5,0,0,0,3.5,13Zm0-2A.5.5,0,1,1,3,11.5.5.5,0,0,1,3.5,11Zm8,2A1.5,1.5,0,1,0,10,11.5,1.5,1.5,0,0,0,11.5,13Zm0-2A.5.5,0,1,1,11,11.5.5.5,0,0,1,11.5,11Zm1-6H2.5a.5.5,0,0,0,0,1h9a.5.5,0,0,0,0-1ZM13.4,3.69,13,3.5A2,2,0,0,0,11,2H4A2,2,0,0,0,2,3.5l-.4.19A.5.5,0,0,0,1,4.21V9.5a.5.5,0,0,0,.5.5H2v.5a.5.5,0,0,0,.5.5h1a.5.5,0,0,0,.5-.5V10h6v.5a.5.5,0,0,0,.5.5h1a.5.5,0,0,0,.5-.5V10h.5a.5.5,0,0,0,.5-.5V4.21a.5.5,0,0,0-.6-.52ZM3,3h8a1,1,0,0,1,1,.93L11.81,4.5H3.19L3,3.93A1,1,0,0,1,4,3H3Zm9,6H3V5.5h9Z"/></svg>