<svg xmlns="http://www.w3.org/2000/svg" viewBox="0 0 15 15" fill="black"><path d="M14.5,7.28a.5.5,0,0,0-.49-.44l-1.42-.23L10.6,2.3a.49.49,0,0,0-.45-.3H4.85a.49.49,0,0,0-.45.3L2.41,6.61,1,6.84a.5.5,0,0,0-.49.44L0,8.82v2.43a.5.5,0,0,0,.5.5H1v.5a.5.5,0,0,0,.5.5h1a.5.5,0,0,0,.5-.5V12H12v.5a.5.5,0,0,0,.5.5h1a.5.5,0,0,0,.5-.5V12h.5a.5.5,0,0,0,.5-.5V8.82ZM3,11.5a1,1,0,1,1,1-1A1,1,0,0,1,3,11.5Zm9,0a1,1,0,1,1,1-1A1,1,0,0,1,12,11.5ZM3.13,6.3,4.9,3H10.1L11.87,6.3l-1.18.19H4.31ZM14,8.53,13.25,8H1.75L1,8.53v-1L2.24,7.3h10.52L14,7.57Z"/></svg>