<svg xmlns="http://www.w3.org/2000/svg" viewBox="0 0 15 15" fill="black"><path d="M7.5,3A1.5,1.5,0,1,0,6,1.5,1.5,1.5,0,0,0,7.5,3Zm0-2A.5.5,0,1,1,7,1.5.5.5,0,0,1,7.5,1ZM9.5,8a.49.49,0,0,0-.48.39L8.6,10.61,7.84,12a.5.5,0,0,0,.63.63l.6-.6V14.5a.5.5,0,0,0,1,0v-2.3l.53-.54.63.64a.5.5,0,0,0,.64,0l.63-.64.53.54V14.5a.5.5,0,0,0,1,0V11.5a.5.5,0,0,0-.24-.42L11,10.05V6.5a.5.5,0,0,0-1,0v3L8.88,8.39A.49.49,0,0,0,8.5,8H6.5a.5.5,0,0,0-.42.24L4.8,10.76,3.64,10A.5.5,0,0,0,3,10.55L4.4,13.2a.5.5,0,0,0,.45.3h.1a.5.5,0,0,0,.43-.26l1-1.8,1.47.74.52,1.38,1-1V6.5a.5.5,0,0,0-.5-.5H9.5a.5.5,0,0,0-.5.5v1Z"/></svg>